<?xml version="1.0" encoding="UTF-8" standalone="no"?>
<!DOCTYPE svg PUBLIC "-//W3C//DTD SVG 1.1//EN" "http://www.w3.org/Graphics/SVG/1.1/DTD/svg11.dtd">
<svg width="800" height="800" viewBox="0 0 800 800" version="1.1" xmlns="http://www.w3.org/2000/svg" xmlns:xlink="http://www.w3.org/1999/xlink" xml:space="preserve" xmlns:serif="http://www.serif.com/" style="fill-rule:evenodd;clip-rule:evenodd;stroke-linejoin:round;stroke-miterlimit:2;">
    <g transform="matrix(0.843523,0,0,0.843523,-10.4498,135.134)">
        <circle cx="152" cy="206" r="79" style="fill:rgb(110,116,223);"/>
    </g>
    <g transform="matrix(0.843523,0,0,0.843523,-10.4498,317.335)">
        <circle cx="152" cy="206" r="79" style="fill:rgb(110,116,223);"/>
        <clipPath id="_clip1">
            <circle cx="152" cy="206" r="79"/>
        </clipPath>
        <g clip-path="url(#_clip1)">
            <g transform="matrix(0.707698,0.706515,-0.706515,0.707698,332.276,-259.781)">
                <g opacity="0.4">
                    <g transform="matrix(1,0,0,1,-217,0)">
                        <rect x="331" y="378" width="35" height="158" style="fill:white;"/>
                    </g>
                    <g transform="matrix(1,0,0,1,-77,5.68434e-14)">
                        <rect x="331" y="378" width="35" height="158" style="fill:white;"/>
                    </g>
                    <g transform="matrix(1,0,0,1,-147,5.68434e-14)">
                        <rect x="331" y="378" width="35" height="158" style="fill:white;"/>
                    </g>
                </g>
            </g>
        </g>
    </g>
    <g transform="matrix(12.0497,0,0,12.0497,-4500.03,-2778.94)">
        <text x="392.304px" y="259.662px" style="font-family:'HelveticaNeue-Light', 'Helvetica Neue';font-weight:300;font-size:10.081px;">new page</text>
    </g>
    <g transform="matrix(0.843523,0,0,0.843523,-94.8794,151.435)">
        <text x="385.951px" y="458.735px" style="font-family:'HelveticaNeue-Light', 'Helvetica Neue';font-weight:300;font-size:144px;">edit</text>
    </g>
</svg>
